PathFileType	4	(X/Y/Z)	/Users/visionmauri/4_3_2_f_1_Sports2D/4_3_2_f_1_Sports2D_m_person00.trc
DataRate	CameraRate	NumFrames	NumMarkers	Units	OrigDataRate	OrigDataStartFrame	OrigNumFrames
30.0	30.0	7	22	m	30.0	270	360
Frame#	Time	Hip			RHip			RKnee			RAnkle			RBigToe			RSmallToe			RHeel			LHip			LKnee			LAnkle			LBigToe			LSmallToe			LHeel			Neck			Head			Nose			RShoulder			RElbow			RWrist			LShoulder			LElbow			LWrist			
		X1	Y1	Z1	X2	Y2	Z2	X3	Y3	Z3	X4	Y4	Z4	X5	Y5	Z5	X6	Y6	Z6	X7	Y7	Z7	X8	Y8	Z8	X9	Y9	Z9	X10	Y10	Z10	X11	Y11	Z11	X12	Y12	Z12	X13	Y13	Z13	X14	Y14	Z14	X15	Y15	Z15	X16	Y16	Z16	X17	Y17	Z17	X18	Y18	Z18	X19	Y19	Z19	X20	Y20	Z20	X21	Y21	Z21	X22	Y22	Z22
270	9.025069637883009	1.1380861036509433	0.8608277497667527	0.0301	1.0107227718802998	0.844170282274402	0.0301	0.9205509142029707	0.44283366603361474	0.129	0.8041105418893056	-0.02767224793293333	0.023	0.7711278314325731	-0.20681903154492134	0.2179	0.7134947880557462	-0.16607754164387428	0.1804	0.8272454982374174	-0.12113216088250316	-0.0119	1.2614747994143702	0.8186717293572484	0.0301	1.2195172939431254	0.34792508381334386	0.129	1.1200600083090388	-0.10212190698783555	0.023	1.1999846836811574	-0.29138521747896745	0.2179	1.243911450827282	-0.27450913503122437	0.1804	1.0656667416220593	-0.1710953325868272	-0.0119	1.153191827314894	1.5370972639168787	0.0008	1.1454938870837188	1.8018126319128924	0.0655	1.1165642528560349	1.5766194095966362	0.1076	0.9278499116872857	1.4557322251224691	-0.01275	0.785301657805877	1.1423373215660904	0.0702	0.6232926120952732	0.9228723591410188	0.1076	1.381661881524616	1.4678369629638586	-0.01275	1.4811985280703026	1.161716441650846	0.0702	1.5111457151334071	0.885448290381996	0.1076
271	9.05849582172702	1.143690819206288	0.8634757845801287	0.0301	1.0174033957089164	0.8517889672123716	0.0301	0.9241680984915466	0.44673720708451203	0.129	0.808233186410027	-0.024412710652770682	0.023	0.7767040245589514	-0.20661829496563286	0.2179	0.7159983112812803	-0.16782431209332396	0.1804	0.8263199603920403	-0.11818027712401119	-0.0119	1.268967430306658	0.8263257729194974	0.0301	1.2235933265806778	0.353265399916396	0.129	1.1210630957359007	-0.10275605817134568	0.023	1.2011075266626037	-0.2909744817760383	0.2179	1.244617020992173	-0.27444790484491677	0.1804	1.066449293578049	-0.1703190520629067	-0.0119	1.1655808845963402	1.5365569018789356	0.0008	1.1624226560932092	1.8184495090725907	0.0655	1.1396436989589156	1.5863250745952204	0.1076	0.9371011212527026	1.461150165750723	-0.01275	0.7911318895754401	1.1495597691957489	0.0702	0.6244810222983974	0.923411840547718	0.1076	1.395425111691154	1.4726041044874312	-0.01275	1.4917028042921758	1.1606744194233878	0.0702	1.5143080887927725	0.8874812305725956	0.1076
272	9.091922005571032	1.1476747706099462	0.867417942659107	0.0301	1.0221376811606346	0.858586314788985	0.0301	0.9267518709240328	0.45343986156357485	0.129	0.8137071416716695	-0.023791442308311213	0.023	0.7804536569074764	-0.20556250989391794	0.2179	0.7181918276596879	-0.16564751247125334	0.1804	0.8265358430765717	-0.11843696110700708	-0.0119	1.2749129240796735	0.8329271550795294	0.0301	1.224979869085731	0.3571428747841115	0.129	1.1213932455803772	-0.10451194537393438	0.023	1.200960207786462	-0.29019953630812245	0.2179	1.2452371369242925	-0.2732901679450848	0.1804	1.0669959016651362	-0.16992885739158625	-0.0119	1.177100088046638	1.540212842266644	0.0008	1.178312994365917	1.8293042649431317	0.0655	1.168919070205539	1.5911782059854545	0.1076	0.9475495483774393	1.4691881769929123	-0.01275	0.7992187574312548	1.1593748886987882	0.0702	0.6256280690748	0.9241181054513599	0.1076	1.4064820796284876	1.4804457885533546	-0.01275	1.502368639530928	1.1596818633526613	0.0702	1.51807781992465	0.8881969093644914	0.1076
273	9.125348189415043	1.1518187819678367	0.8706889773697776	0.0301	1.0263542919420126	0.8623179456180642	0.0301	0.9299539070637991	0.4597300026294275	0.129	0.8172223960796063	-0.02571905395914839	0.023	0.779047437206938	-0.20437274118581641	0.2179	0.7188596847916702	-0.16021149454569453	0.1804	0.8307611453683075	-0.12408978577346792	-0.0119	1.2790977280358011	0.8350837922691592	0.0301	1.2233396759170538	0.3594327085337074	0.129	1.1214886788377412	-0.10604720771943582	0.023	1.198831626391974	-0.28900656038992384	0.2179	1.2452761913181882	-0.27206443786478973	0.1804	1.0680876842827984	-0.17008016681072455	-0.0119	1.188676056073873	1.5467219778612518	0.0008	1.190288484325707	1.8339807288341334	0.0655	1.1860641344471778	1.59577644942615	0.1076	0.9593551255638509	1.476794391255081	-0.01275	0.8078521430200322	1.165041505557241	0.0702	0.626512720536225	0.9250583265628289	0.1076	1.41814512375916	1.4844460555874737	-0.01275	1.5150224267872043	1.1566435423989534	0.0702	1.5238268137268196	0.8859588376945444	0.1076
274	9.158774373259053	1.157262733921584	0.875785051373335	0.0301	1.0303431035244692	0.8695656579085181	0.0301	0.9322319483109761	0.46759042460134986	0.129	0.8166516427806749	-0.026989013713475323	0.023	0.774819118201689	-0.2036262874899327	0.2179	0.7194763698291423	-0.1592111602002545	0.1804	0.8370087952128943	-0.12889939237203907	-0.0119	1.2821646786003187	0.8384603888106746	0.0301	1.2211157467091949	0.3627036032964407	0.129	1.1226287723408157	-0.10617909325534403	0.023	1.194979201340908	-0.2873502333719982	0.2179	1.2450823588130457	-0.2720434142078263	0.1804	1.0706350512920728	-0.17043593862786893	-0.0119	1.2009810644063685	1.552180880657674	0.0008	1.1998646268846185	1.836052339397297	0.0655	1.1867198115143665	1.5993337758766775	0.1076	0.9716439094124302	1.482968583631685	-0.01275	0.8141596836704729	1.16605100936863	0.0702	0.6276712004196388	0.9268057100448958	0.1076	1.4314299868499776	1.482550938710979	-0.01275	1.5290408151886632	1.1530801207750703	0.0702	1.5293156376248793	0.884351975951056	0.1076
275	9.192200557103064	1.1629487160331757	0.8861908851575434	0.0301	1.033567137268401	0.8850647019446366	0.0301	0.9324433815310729	0.4789880432391565	0.129	0.8134195717123542	-0.025845336163132563	0.023	0.7717689278632094	-0.2038140610475608	0.2179	0.720294315283277	-0.1646640594495194	0.1804	0.8390882131697119	-0.13237851361937653	-0.0119	1.2850206904544481	0.8485327380883261	0.0301	1.2197890751627183	0.36626609447365804	0.129	1.1238014142395827	-0.10562580797620655	0.023	1.191032937336656	-0.28596224078433696	0.2179	1.2447713574588024	-0.27288051638044636	0.1804	1.073085784764079	-0.1705404164560266	-0.0119	1.2138302271335633	1.5557104017012915	0.0008	1.2104260804811693	1.836259331601262	0.0655	1.1816094628945004	1.5997129576077895	0.1076	0.9848221673034315	1.4893096214778248	-0.01275	0.817287190218808	1.1658165803098535	0.0702	0.6287224861934079	0.9284794867573558	0.1076	1.443486930191144	1.4791848210837393	-0.01275	1.5416025834172826	1.1523450018143182	0.0702	1.532312147038272	0.8866062427727743	0.1076
276	9.225626740947076	1.1668497277724679	0.8986091158412866	0.0301	1.0353573227329396	0.8999037437586667	0.0301	0.9311417738918786	0.48714323021581124	0.129	0.8100391858653323	-0.024173250427382206	0.023	0.7698551953121786	-0.20594247132438484	0.2179	0.7186188106317439	-0.1705610824843595	0.1804	0.8349761554647112	-0.1491847894331075	-0.0119	1.288357358704316	0.859254063138964	0.0301	1.218339380083815	0.3679491597492771	0.129	1.1233973592126039	-0.10592639693293898	0.023	1.1886283285354247	-0.28525543394985836	0.2179	1.243300692785692	-0.2730886034451423	0.1804	1.0732137762466054	-0.17086701516516972	-0.0119	1.225765502756269	1.560002371086549	0.0008	1.2210778015597668	1.8335456390786027	0.0655	1.179709749980784	1.5992317318667129	0.1076	0.9986567750616309	1.4965031035095753	-0.01275	0.8199204992031095	1.1663299394641626	0.0702	0.6284134704693766	0.928899245061772	0.1076	1.452494920472671	1.4778641435704625	-0.01275	1.550871224758734	1.1536376152235905	0.0702	1.5349458039235522	0.8895251974041725	0.1076
